<?xml version="1.0" standalone="no"?>
<!DOCTYPE svg PUBLIC "-//W3C//DTD SVG 20010904//EN"
 "http://www.w3.org/TR/2001/REC-SVG-20010904/DTD/svg10.dtd">
<svg version="1.0" xmlns="http://www.w3.org/2000/svg"
 width="434.000000pt" height="434.000000pt" viewBox="0 0 434.000000 434.000000"
 preserveAspectRatio="xMidYMid meet">
<metadata>
Created by potrace 1.11, written by Peter Selinger 2001-2013
</metadata>
<g transform="translate(0.000000,434.000000) scale(0.100000,-0.100000)"
fill="#000000" stroke="none">
<path d="M0 4310 c0 -7 677 -10 2010 -10 1106 0 2010 -3 2010 -7 0 -5 -10 -24
-23 -43 -20 -31 -22 -48 -22 -155 0 -153 28 -260 84 -325 34 -40 40 -43 98
-47 49 -4 75 0 123 18 l60 24 0 277 0 278 -2170 0 c-1440 0 -2170 -3 -2170
-10z"/>
<path d="M3763 4147 c-24 -6 -43 -15 -43 -20 0 -4 -5 -5 -11 -1 -10 6 -129
-107 -129 -123 -1 -5 -5 -26 -11 -47 -16 -58 -16 -164 0 -219 17 -59 80 -132
127 -147 43 -14 129 -7 162 13 6 5 17 5 22 2 6 -3 10 -2 10 3 0 5 11 15 25 22
29 16 30 26 11 123 -8 40 -29 147 -47 240 -36 186 -27 175 -116 154z"/>
<path d="M2530 4067 c-60 -22 -100 -42 -100 -49 0 -5 -6 -8 -12 -8 -7 0 -33
-16 -58 -36 -35 -28 -45 -42 -47 -69 -1 -26 2 -33 13 -28 18 7 18 -4 -1 -23
-13 -14 -15 -14 -15 1 0 12 -5 15 -16 11 -15 -6 -15 -4 0 18 22 34 20 43 -3
22 -11 -10 -29 -41 -41 -69 -21 -47 -22 -62 -16 -162 4 -70 13 -129 25 -163
11 -29 19 -55 19 -58 0 -12 48 -73 62 -79 60 -22 79 -24 133 -14 31 5 85 22
120 38 34 15 77 34 95 42 22 9 32 21 32 36 0 12 12 31 27 42 35 29 44 17 10
-15 -31 -29 -34 -36 -9 -27 29 10 71 54 65 69 -3 10 0 12 10 9 23 -10 70 53
62 84 -4 19 -3 22 4 11 8 -12 12 -9 20 13 6 15 8 34 4 43 -3 9 0 20 7 24 10 6
10 21 1 73 -24 136 -108 228 -238 262 -69 18 -106 18 -153 2z m150 -16 c0 -13
-84 -25 -117 -16 -21 5 -24 8 -12 16 19 12 129 12 129 0z m-160 -15 c0 -2 -11
-6 -25 -8 -13 -3 -22 -1 -19 3 5 9 44 13 44 5z m-40 -41 c0 -8 -2 -15 -4 -15
-2 0 -6 7 -10 15 -3 8 -1 15 4 15 6 0 10 -7 10 -15z m-45 -25 c3 -6 -5 -10
-19 -10 -14 0 -28 -4 -31 -10 -3 -5 -10 -10 -15 -10 -6 0 -2 9 7 20 19 21 48
26 58 10z m470 -209 c-3 -2 -6 2 -7 10 0 8 -4 -8 -8 -36 -6 -46 -7 -43 -8 30
l-1 80 14 -40 c8 -21 12 -41 10 -44z m-591 34 c3 -8 1 -15 -4 -15 -6 0 -10 7
-10 15 0 8 2 15 4 15 2 0 6 -7 10 -15z m-44 -5 c0 -5 -4 -10 -10 -10 -5 0 -10
5 -10 10 0 6 5 10 10 10 6 0 10 -4 10 -10z m-16 -105 c3 -8 1 -15 -4 -15 -6 0
-10 7 -10 15 0 8 2 15 4 15 2 0 6 -7 10 -15z m576 5 c0 -5 -4 -10 -10 -10 -5
0 -10 5 -10 10 0 6 5 10 10 10 6 0 10 -4 10 -10z m-510 -72 c0 -19 -2 -20 -10
-8 -13 19 -13 30 0 30 6 0 10 -10 10 -22z m-40 -13 c0 -8 -4 -15 -10 -15 -5 0
-10 7 -10 15 0 8 5 15 10 15 6 0 10 -7 10 -15z m570 6 c0 -5 -7 -14 -15 -21
-16 -14 -18 -10 -9 14 6 17 24 22 24 7z m-557 -91 c3 -11 3 -20 1 -20 -2 0 -8
9 -14 20 -6 11 -7 20 -2 20 6 0 12 -9 15 -20z m24 -12 c-3 -7 -5 -2 -5 12 0
14 2 19 5 13 2 -7 2 -19 0 -25z m343 -57 c0 -17 -15 -19 -28 -5 -11 12 -9 14
8 14 11 0 20 -4 20 -9z m-40 -21 c0 -5 -9 -10 -20 -10 -11 0 -20 5 -20 10 0 6
9 10 20 10 11 0 20 -4 20 -10z"/>
<path d="M2578 4043 c12 -2 32 -2 45 0 12 2 2 4 -23 4 -25 0 -35 -2 -22 -4z"/>
<path d="M2025 3753 c-11 -3 -24 -9 -29 -14 -6 -5 -18 -9 -27 -9 -19 0 -109
-81 -109 -98 0 -7 -4 -12 -9 -12 -7 0 -21 -56 -35 -145 -8 -53 22 -161 56
-200 17 -19 35 -32 40 -29 4 3 8 -1 8 -9 0 -19 31 -27 100 -26 40 0 68 7 104
27 26 15 48 32 48 37 -4 58 -30 203 -52 295 -5 19 -15 69 -23 110 -14 79 -21
86 -72 73z m-4 -44 c-18 -11 -36 -18 -39 -15 -3 4 0 6 7 6 7 0 10 4 6 9 -3 5
3 12 12 14 41 11 46 6 14 -14z m-60 -29 c6 0 7 -4 4 -10 -3 -5 -15 -10 -26
-10 -14 0 -25 -10 -32 -30 -6 -16 -15 -30 -19 -30 -14 0 -2 42 15 55 9 7 17
18 17 25 0 7 7 10 16 6 9 -3 20 -6 25 -6z m39 -30 c0 -5 -5 -10 -11 -10 -5 0
-7 5 -4 10 3 6 8 10 11 10 2 0 4 -4 4 -10z m-53 -26 c-3 -3 -12 -4 -19 -1 -8
3 -5 6 6 6 11 1 17 -2 13 -5z m163 -92 c0 -53 -16 -27 -24 38 -6 54 -6 54 9
26 8 -15 15 -44 15 -64z m-273 -94 c-2 -13 -4 -3 -4 22 0 25 2 35 4 23 2 -13
2 -33 0 -45z m250 0 c-3 -8 -6 -5 -6 6 -1 11 2 17 5 13 3 -3 4 -12 1 -19z m30
-15 c-3 -10 -5 -4 -5 12 0 17 2 24 5 18 2 -7 2 -21 0 -30z m-219 -80 c-5 -25
-28 -28 -28 -4 0 12 6 21 16 21 9 0 14 -7 12 -17z m207 -43 c7 0 16 6 18 13 3
7 6 4 6 -6 1 -14 -5 -18 -21 -15 -15 2 -23 10 -24 23 -1 15 0 16 3 3 3 -10 10
-18 18 -18z m-185 -6 c0 -1 -3 -9 -6 -18 -8 -21 -21 -20 -26 2 -4 12 1 18 13
18 11 0 19 -1 19 -2z m240 -14 c0 -5 -4 -10 -10 -10 -5 0 -10 5 -10 10 0 6 5
10 10 10 6 0 10 -4 10 -10z m-33 -16 c-3 -3 -12 -4 -19 -1 -8 3 -5 6 6 6 11 1
17 -2 13 -5z"/>
<path d="M775 3691 c-61 -16 -109 -42 -171 -92 -66 -54 -103 -101 -122 -158
-27 -78 -3 -302 42 -391 12 -25 38 -56 57 -69 30 -20 42 -22 99 -18 124 10
292 84 386 170 143 131 156 326 29 465 -52 58 -130 93 -219 97 -39 3 -84 1
-101 -4z"/>
<path d="M279 3376 c-62 -17 -132 -59 -167 -102 -87 -105 -74 -327 24 -414 38
-33 84 -44 153 -38 47 5 129 39 142 60 3 5 -4 60 -17 121 -23 113 -74 376 -74
383 0 6 -9 4 -61 -10z"/>
<path d="M3375 3192 c-138 -35 -185 -136 -172 -367 11 -179 53 -244 187 -284
105 -32 206 -29 284 9 158 75 262 263 236 424 -18 113 -74 174 -192 210 -72
22 -270 27 -343 8z"/>
<path d="M2945 3161 c-108 -26 -175 -118 -183 -252 -8 -132 42 -241 125 -275
33 -14 168 -19 197 -8 14 5 16 39 16 269 l0 262 -37 7 c-46 7 -78 6 -118 -3z"/>
<path d="M1623 2806 c-132 -33 -173 -109 -173 -319 1 -217 44 -288 206 -336
88 -26 134 -26 216 -1 116 36 196 106 253 220 21 44 28 74 32 147 5 86 4 96
-21 148 -31 63 -71 97 -148 127 -67 27 -283 35 -365 14z"/>
<path d="M1146 2760 c-53 -27 -68 -42 -102 -103 -27 -48 -29 -60 -29 -157 1
-90 4 -112 24 -154 45 -90 141 -131 258 -109 l48 8 0 262 c0 210 -3 264 -13
268 -34 13 -148 3 -186 -15z"/>
<path d="M43 2443 l-43 -4 0 -349 c0 -269 3 -349 13 -352 17 -7 138 19 151 32
5 5 15 10 22 10 14 0 59 37 116 95 83 83 131 241 108 352 -13 58 -60 130 -100
150 -14 7 -20 13 -15 13 15 2 -34 20 -90 35 -68 17 -112 22 -162 18z"/>
<path d="M3270 1850 l0 -100 -40 0 -40 0 0 -64 0 -65 38 -3 37 -3 5 -236 c4
-176 8 -240 18 -252 8 -9 10 -22 6 -29 -4 -7 -4 -10 1 -6 4 4 20 1 36 -7 16
-9 56 -15 94 -15 l65 0 0 75 0 75 -31 0 c-55 0 -57 9 -59 213 l-1 187 46 0 45
0 0 65 0 65 -45 0 -45 0 0 100 0 100 -65 0 -65 0 0 -100z"/>
<path d="M2201 1766 c-38 -8 -64 -21 -88 -45 -24 -24 -33 -28 -34 -17 -1 9 -2
22 -3 29 -1 8 -23 13 -63 15 l-63 3 0 -341 0 -340 64 0 64 0 4 233 c4 246 9
273 53 297 30 16 76 -5 86 -40 4 -14 7 -130 8 -258 l1 -233 65 3 65 3 2 230
c3 193 6 235 20 261 27 49 72 59 104 23 17 -19 19 -43 24 -268 l5 -246 65 0
65 0 3 244 c3 261 -6 332 -48 391 -54 76 -180 72 -235 -8 l-23 -34 -17 31 c-9
18 -29 40 -45 50 -17 10 -27 21 -23 24 3 4 4 6 2 6 -2 -1 -28 -7 -58 -13z"/>
<path d="M2866 1759 c2 -4 -6 -9 -19 -13 -12 -3 -34 -16 -48 -30 -15 -14 -30
-22 -35 -18 -4 4 -4 2 0 -5 4 -7 0 -23 -9 -36 -9 -14 -18 -48 -22 -76 l-6 -51
66 0 c63 0 66 1 72 28 10 45 39 72 77 72 45 0 58 -11 68 -53 12 -56 -6 -80
-70 -95 -120 -29 -160 -44 -175 -65 -13 -18 -17 -19 -24 -8 -7 10 -9 8 -9 -10
1 -13 -5 -49 -11 -79 -22 -104 13 -215 77 -246 46 -22 120 -21 164 2 18 10 37
17 41 16 5 -1 6 2 3 7 -4 5 -2 12 3 15 5 3 12 -6 15 -20 6 -24 9 -25 74 -22
54 2 66 6 62 18 -2 8 -7 137 -10 285 -4 231 -8 275 -22 302 -10 17 -22 35 -28
38 -6 4 -8 11 -4 16 3 5 2 8 -3 7 -4 -1 -25 4 -45 11 -38 13 -189 21 -182 10z
m144 -434 c0 -87 -33 -135 -94 -135 -59 0 -89 89 -48 140 14 18 85 44 135 49
4 1 7 -24 7 -54z"/>
<path d="M3714 1760 c-74 -16 -137 -83 -170 -180 -26 -75 -26 -261 -2 -341 34
-108 116 -180 206 -181 58 0 90 8 114 29 9 8 22 12 29 7 8 -4 10 -3 5 4 -4 7
4 27 18 45 22 28 55 113 56 139 0 3 -27 8 -60 10 -41 2 -60 -1 -60 -9 0 -20
-49 -71 -74 -77 -57 -14 -100 26 -115 107 l-8 47 165 0 165 0 -6 88 c-16 221
-119 344 -263 312z m75 -153 c6 -8 8 -17 4 -21 -4 -4 0 -4 9 -1 13 5 19 -2 27
-32 18 -64 20 -63 -83 -63 l-94 0 8 36 c16 70 96 120 129 81z"/>
<path d="M470 1741 c-8 -6 -18 -7 -24 -4 -5 3 -6 1 -3 -4 4 -6 0 -14 -9 -17
-8 -3 -24 -27 -36 -52 -16 -36 -19 -62 -16 -115 5 -92 24 -115 121 -155 42
-17 74 -34 70 -38 -4 -4 0 -4 8 -1 22 8 66 -30 79 -70 13 -41 0 -103 -29 -129
-27 -25 -70 -34 -115 -24 -64 14 -86 48 -99 148 -1 8 -15 16 -31 18 l-29 4 7
-58 c14 -123 82 -187 191 -182 45 3 70 10 95 28 19 14 38 25 42 25 3 0 10 4
15 9 5 5 3 6 -4 2 -17 -9 -16 -6 3 39 11 28 14 56 10 104 -7 89 -9 100 -17 95
-4 -2 -10 3 -13 12 -6 15 -88 56 -176 88 -69 25 -97 89 -70 160 12 32 65 66
104 66 41 0 93 -56 102 -109 6 -35 10 -41 31 -41 23 0 24 2 21 64 -2 35 -6 62
-10 59 -5 -2 -13 7 -19 20 -23 52 -150 88 -199 58z"/>
<path d="M885 1732 c-128 -78 -173 -357 -89 -542 31 -67 48 -86 98 -112 29
-15 52 -19 87 -16 133 13 206 151 196 373 -6 161 -49 256 -134 299 -43 22
-120 21 -158 -2z m146 -64 c21 -14 45 -46 64 -83 28 -57 30 -67 29 -175 0 -94
-4 -125 -22 -171 -59 -151 -202 -153 -265 -4 -56 131 -24 375 55 427 50 33 95
35 139 6z"/>
<path d="M1574 1735 c-3 -6 -3 -156 -2 -335 l3 -325 158 -3 c102 -2 157 1 158
8 1 5 2 17 2 25 0 8 -1 20 -2 25 -1 6 -52 10 -131 10 l-131 0 3 122 3 121 114
-1 c63 -1 117 1 121 3 4 2 5 18 2 35 l-4 30 -118 0 -119 0 -3 106 c-2 58 1
108 5 111 4 3 63 5 130 6 l122 2 3 32 3 32 -157 3 c-99 2 -158 -1 -160 -7z"/>
<path d="M1240 1415 c0 -179 0 -328 0 -332 0 -5 67 -9 150 -11 l150 -3 0 36 0
35 -125 0 -125 0 0 300 0 300 -25 0 -25 0 0 -325z"/>
<path d="M387 863 c-7 -7 -10 -327 -3 -334 2 -2 63 -2 135 1 l131 5 20 30 c16
24 20 47 20 123 0 107 -16 157 -55 172 -29 11 -238 14 -248 3z m218 -168 l0
-70 -72 -3 -73 -3 0 76 0 76 73 -3 72 -3 0 -70z"/>
<path d="M945 865 c-5 -2 -22 -6 -37 -9 -45 -10 -57 -47 -55 -167 3 -144 10
-154 129 -158 117 -4 154 9 168 57 13 48 13 176 0 224 -10 33 -15 37 -61 47
-47 10 -122 13 -144 6z m127 -101 c13 -8 10 -118 -4 -132 -18 -18 -113 -15
-128 3 -30 36 -16 126 21 137 24 7 94 2 111 -8z"/>
<path d="M1385 860 c-22 -4 -42 -6 -45 -5 -7 4 -8 -3 -16 -135 -8 -130 5 -173
56 -184 63 -12 164 -7 200 12 31 15 36 23 42 67 9 65 -1 200 -16 221 -21 29
-133 41 -221 24z m156 -96 c13 -8 11 -118 -3 -132 -7 -7 -38 -12 -70 -12 -67
0 -78 12 -78 82 0 50 7 64 35 71 22 6 102 0 116 -9z"/>
<path d="M1789 864 c0 -5 -1 -82 -2 -171 l-2 -163 38 0 c37 0 37 0 37 40 l0
41 63 -3 62 -3 3 -40 3 -40 39 3 39 4 -4 50 c-2 27 -9 56 -15 64 -9 10 -8 17
5 30 14 14 16 31 13 86 -5 98 -11 102 -158 107 -66 2 -120 -1 -121 -5z m199
-128 c-3 -31 -4 -31 -65 -34 l-63 -3 0 35 c0 33 2 35 38 38 20 2 50 1 65 -1
25 -3 28 -7 25 -35z"/>
<path d="M2227 863 c-4 -3 -7 -80 -7 -170 l0 -163 41 0 40 0 -3 120 c-2 65 0
116 4 112 3 -4 20 -52 37 -107 38 -122 41 -127 76 -123 26 3 31 11 63 106 19
56 39 102 44 102 5 0 8 -47 6 -105 l-3 -105 38 0 37 0 -2 168 -3 167 -60 3
-60 3 -29 -96 c-16 -52 -32 -95 -35 -95 -4 0 -20 43 -35 95 l-29 95 -57 0
c-31 0 -60 -3 -63 -7z"/>
<path d="M2876 861 c-3 -5 -28 -69 -55 -142 -27 -74 -54 -146 -60 -161 -10
-28 -10 -28 33 -28 40 0 45 3 55 30 10 30 11 30 81 30 70 0 72 -1 83 -29 9
-24 17 -30 49 -33 21 -2 39 1 41 7 2 5 -7 37 -19 70 -12 33 -37 101 -55 150
-18 50 -37 96 -42 103 -11 14 -103 17 -111 3z m89 -158 c7 -33 7 -33 -34 -33
-23 0 -41 2 -41 4 0 4 27 82 36 106 7 17 27 -23 39 -77z"/>
<path d="M3254 856 c-3 -8 -4 -29 -2 -48 3 -32 5 -33 51 -36 l47 -3 0 -109 c0
-59 2 -115 5 -122 4 -9 17 -13 40 -10 l34 4 3 122 3 121 50 0 50 0 0 45 0 45
-138 3 c-112 2 -138 0 -143 -12z"/>
<path d="M3746 857 c-33 -10 -41 -18 -49 -47 -11 -44 -1 -115 20 -132 9 -7 50
-15 92 -18 69 -5 76 -7 79 -27 3 -22 0 -23 -57 -23 -49 0 -62 4 -71 19 -7 14
-19 19 -37 17 -23 -3 -29 -9 -31 -33 -2 -18 4 -39 16 -53 17 -22 29 -24 115
-28 86 -4 97 -2 116 17 20 20 26 49 21 116 -1 17 -6 35 -11 41 -5 6 -7 13 -4
16 6 6 -1 7 -95 14 -41 4 -78 11 -82 17 -13 21 14 37 64 37 41 0 51 -3 55 -20
6 -22 56 -29 68 -9 12 18 -5 78 -24 88 -31 17 -143 22 -185 8z"/>
<path d="M1083 23 c598 -2 1576 -2 2175 0 598 1 108 2 -1088 2 -1196 0 -1686
-1 -1087 -2z"/>
</g>
</svg>
